<?xml version="1.0" encoding="UTF-8" standalone="no"?>
<svg
   xmlns:dc="http://purl.org/dc/elements/1.1/"
   xmlns:cc="http://creativecommons.org/ns#"
   xmlns:rdf="http://www.w3.org/1999/02/22-rdf-syntax-ns#"
   xmlns:svg="http://www.w3.org/2000/svg"
   xmlns="http://www.w3.org/2000/svg"
   xmlns:sodipodi="http://sodipodi.sourceforge.net/DTD/sodipodi-0.dtd"
   xmlns:inkscape="http://www.inkscape.org/namespaces/inkscape"
   sodipodi:docname="Instalka-QR.svg"
   inkscape:version="1.0 (4035a4fb49, 2020-05-01)"
   id="svg8"
   version="1.1"
   viewBox="0 0 210 297"
   height="297mm"
   width="210mm">
  <defs
     id="defs2" />
  <sodipodi:namedview
     inkscape:window-maximized="0"
     inkscape:window-y="133"
     inkscape:window-x="1535"
     inkscape:window-height="1502"
     inkscape:window-width="1815"
     showgrid="false"
     inkscape:document-rotation="0"
     inkscape:current-layer="layer1"
     inkscape:document-units="mm"
     inkscape:cy="560"
     inkscape:cx="400"
     inkscape:zoom="2.8"
     inkscape:pageshadow="2"
     inkscape:pageopacity="0.0"
     borderopacity="1.0"
     bordercolor="#666666"
     pagecolor="#ffffff"
     id="base" />
  <metadata
     id="metadata5">
    <rdf:RDF>
      <cc:Work
         rdf:about="">
        <dc:format>image/svg+xml</dc:format>
        <dc:type
           rdf:resource="http://purl.org/dc/dcmitype/StillImage" />
        <dc:title></dc:title>
      </cc:Work>
    </rdf:RDF>
  </metadata>
  <g
     id="layer1"
     inkscape:groupmode="layer"
     inkscape:label="Warstwa 1">
    <path
       id="path863"
       d="m 78.335564,164.91101 v -5.55625 h 5.55625 5.556252 v 5.55625 5.55625 h -5.556252 -5.55625 z m 9.525001,0 v -3.96875 h -3.968751 -3.96875 v 3.96875 3.96875 h 3.96875 3.968751 z m -6.350001,0 v -2.38125 h 2.38125 2.381251 v 2.38125 2.38125 h -2.381251 -2.38125 z m 9.525002,1.5875 v -3.96875 h 0.79375 0.79375 v 3.96875 3.96875 h -0.79375 -0.79375 z m 4.7625,3.175 v -0.79375 h -0.79375 -0.79375 v -0.79375 -0.79375 h 0.79375 0.79375 v -0.79375 -0.79375 h -0.79375 -0.79375 v -0.79375 -0.79375 h 0.79375 0.79375 v 0.79375 0.79375 h 1.5875 1.5875 v 0.79375 0.79375 h -0.79375 -0.79375 v 1.5875 1.5875 h -0.79375 -0.79375 z m 9.525004,0 v -0.79375 h 0.79375 0.79375 v -0.79375 -0.79375 h 1.5875 1.5875 v -0.79375 -0.79375 h -0.79375 -0.79375 v -1.5875 -1.5875 h -0.79375 -0.79375 v 0.79375 0.79375 h -0.79375 -0.79375 v 1.5875 1.5875 h -0.79375 -0.79375 v 0.79375 0.79375 h -1.5875 -1.5875 v -0.79375 -0.79375 h 0.79375 0.79375 v -0.79375 -0.79375 h 0.79375 0.79375 v -0.79375 -0.79375 h 0.79375 0.79375 v -0.79375 -0.79375 h -0.79375 -0.79375 v -0.79375 -0.79375 h -1.5875 -1.5875 v 0.79375 0.79375 h 0.79375 0.79375 v 0.79375 0.79375 h -0.79375 -0.79375 v -0.79375 -0.79375 h -0.793754 -0.79375 v 0.79375 0.79375 h -0.79375 -0.79375 v -1.5875 -1.5875 h 0.79375 0.79375 v -0.79375 -0.79375 h -0.79375 -0.79375 v -0.79375 -0.79375 h -0.79375 -0.79375 v 0.79375 0.79375 h -0.79375 -0.79375 v 0.79375 0.79375 h -1.5875 -1.5875 v -1.5875 -1.5875 h 0.79375 0.79375 v 0.79375 0.79375 h 0.79375 0.79375 v -1.5875 -1.5875 h -1.5875 -1.5875 v -0.79375 -0.79375 h -1.5875 -1.587501 v 0.79375 0.79375 h 0.79375 0.793751 v 0.79375 0.79375 h -3.175001 -3.175001 v -0.79375 -0.79375 h -0.79375 -0.79375 v -0.79375 -0.79375 h 0.79375 0.79375 v -0.79375 -0.79375 h -0.79375 -0.79375 v -1.5875 -1.5875 h -1.5875 -1.5875 v -0.79375 -0.79375 h 1.5875 1.5875 v -1.5875 -1.5875 h 0.79375 0.79375 v -0.79375 -0.79375 h -2.38125 -2.38125 v -0.79375 -0.79375 h 2.38125 2.38125 v 0.79375 0.79375 h 3.175001 3.175001 v -0.79375 -0.79375 h -0.793751 -0.79375 v -0.79375 -0.79375 h -0.79375 -0.79375 v 0.79375 0.79375 h -0.79375 -0.793751 v -2.38125 -2.38125 h -1.5875 -1.5875 v 0.79375 0.79375 h -0.79375 -0.79375 v 0.79375 0.79375 h -0.79375 -0.79375 v -1.5875 -1.5875 h 0.79375 0.79375 v -0.79375 -0.79375 h -0.79375 -0.79375 v -0.79375 -0.79375 h 1.5875 1.5875 v 0.79375 0.79375 h 1.5875 1.5875 v 0.79375 0.79375 h 0.793751 0.79375 v 0.79375 0.79375 h 0.79375 0.79375 v -0.79375 -0.79375 h 0.79375 0.793751 v -0.79375 -0.79375 h -1.587501 -1.5875 v -0.79375 -0.79375 h 1.5875 1.587501 v -0.79375 -0.79375 h -0.793751 -0.79375 v -0.79375 -0.79375 h 2.381251 2.38125 v -0.79375 -0.79375 h -0.79375 -0.79375 v -1.5875 -1.5875 h 0.79375 0.79375 v -0.79375 -0.79375 h -0.79375 -0.79375 v -0.79375 -0.79375 h 2.38125 2.38125 v 0.79375 0.79375 h -0.79375 -0.79375 v 1.5875 1.5875 h 0.79375 0.79375 v -0.79375 -0.79375 h 1.5875 1.5875 v 1.5875 1.5875 h -0.79375 -0.79375 v 1.5875 1.5875 h 3.175004 3.175 v 0.79375 0.79375 h 0.79375 0.79375 v -1.5875 -1.5875 h -0.79375 -0.79375 v -1.5875 -1.5875 h 0.79375 0.79375 v 1.5875 1.5875 h 0.79375 0.79375 v 0.79375 0.79375 h 0.79375 0.79375 v -1.5875 -1.5875 h -0.79375 -0.79375 v -0.79375 -0.79375 h 0.79375 0.79375 v 0.79375 0.79375 h 0.79375 0.79375 v -0.79375 -0.79375 h 0.79375 0.79375 v -0.79375 -0.79375 h -4.7625 -4.7625 v -0.79375 -0.79375 h -0.79375 -0.79375 v -0.79375 -0.79375 h -0.793754 -0.79375 v 0.79375 0.79375 h -0.79375 -0.79375 v -1.5875 -1.5875 h 0.79375 0.79375 v -0.79375 -0.79375 h -0.79375 -0.79375 v -0.79375 -0.79375 h 3.175004 3.175 v 0.79375 0.79375 h 0.79375 0.79375 v 0.79375 0.79375 h -0.79375 -0.79375 v 1.5875 1.5875 h 0.79375 0.79375 v -0.79375 -0.79375 h 0.79375 0.79375 v -0.79375 -0.79375 h 0.79375 0.79375 v 0.79375 0.79375 h 0.79375 0.79375 v 0.79375 0.79375 h 0.79375 0.79375 v 0.79375 0.79375 h 1.5875 1.5875 v -0.79375 -0.79375 h -0.79375 -0.79375 v -0.79375 -0.79375 h -0.79375 -0.79375 v -0.79375 -0.79375 h 0.79375 0.79375 v -0.79375 -0.79375 h 0.79375 0.79375 v -0.79375 -0.79375 h 1.5875 1.5875 v 0.79375 0.79375 h -1.5875 -1.5875 v 0.79375 0.79375 h 0.79375 0.79375 v 0.79375 0.79375 h 0.79375 0.79375 v 0.79375 0.79375 h -0.79375 -0.79375 v 0.79375 0.79375 h -0.79375 -0.79375 v 2.38125 2.38125 h 0.79375 0.79375 v -1.5875 -1.5875 h 0.79375 0.79375 v 1.5875 1.5875 h 0.79375 0.79375 v 0.79375 0.79375 h 0.79375 0.79375 v -0.79375 -0.79375 h 0.79375 0.79375 v 0.79375 0.79375 h -0.79375 -0.79375 v 0.79375 0.79375 h 0.79375 0.79375 v 1.5875 1.5875 h 1.5875 1.5875 v -0.79375 -0.79375 h -0.79375 -0.79375 v -0.79375 -0.79375 h 0.79375 0.79375 v -0.79375 -0.79375 h -0.79375 -0.79375 v -0.79375 -0.79375 h 0.79375 0.79375 v 0.79375 0.79375 h 0.79375 0.79375 v -0.79375 -0.79375 h 0.79375 0.79375 v 0.79375 0.79375 h 0.79375 0.79375 v 0.79375 0.79375 h -0.79375 -0.79375 v 0.79375 0.79375 h -0.79375 -0.79375 v 0.79375 0.79375 h -0.79375 -0.79375 v 0.79375 0.79375 h -1.5875 -1.5875 v -0.79375 -0.79375 h -1.5875 -1.5875 v 0.79375 0.79375 h 0.79375 0.79375 v 1.5875 1.5875 h 1.5875 1.5875 v 1.5875 1.5875 h 0.79375 0.79375 v 1.5875 1.5875 h 0.79375 0.79375 v -2.38125 -2.38125 h -0.79375 -0.79375 v -0.79375 -0.79375 h 0.79375 0.79375 v -1.5875 -1.5875 h 1.5875 1.5875 v 0.79375 0.79375 h -0.79375 -0.79375 v 0.79375 0.79375 h -0.79375 -0.79375 v 0.79375 0.79375 h 0.79375 0.79375 v 0.79375 0.79375 h 0.79375 0.79375 v 0.79375 0.79375 h -0.79375 -0.79375 v 0.79375 0.79375 h -0.79375 -0.79375 v 0.79375 0.79375 h 0.79375 0.79375 v 0.79375 0.79375 h 0.79375 0.79375 v 0.79375 0.79375 h -0.79375 -0.79375 v 0.79375 0.79375 h -0.79375 -0.79375 v 0.79375 0.79375 h -0.79375 -0.79375 v 0.79375 0.79375 h 0.79375 0.79375 v 0.79375 0.79375 h 0.79375 0.79375 v -1.5875 -1.5875 h 0.79375 0.79375 v 1.5875 1.5875 h -0.79375 -0.79375 v 1.5875 1.5875 h 0.79375 0.79375 v 1.5875 1.5875 h -1.5875 -1.5875 v 1.5875 1.5875 h 0.79375 0.79375 v 0.79375 0.79375 h -0.79375 -0.79375 v -0.79375 -0.79375 h -1.5875 -1.5875 v 0.79375 0.79375 h -1.5875 -1.5875 v -0.79375 -0.79375 h -0.79375 -0.79375 v 0.79375 0.79375 h -2.38125 -2.38125 v -0.79375 -0.79375 h -2.38125 -2.38125 v 0.79375 0.79375 h -0.79375 -0.79375 v -0.79375 -0.79375 h -0.79375 -0.79375 v 0.79375 0.79375 h -0.79375 -0.79375 z m 14.2875,-2.38125 v -1.5875 h 0.79375 0.79375 v -0.79375 -0.79375 h -0.79375 -0.79375 v 0.79375 0.79375 h -0.79375 -0.79375 v 0.79375 0.79375 h -0.79375 -0.79375 v 0.79375 0.79375 h 1.5875 1.5875 z m -4.7625,-0.79375 v -0.79375 h 0.79375 0.79375 v -1.5875 -1.5875 h -0.79375 -0.79375 v 0.79375 0.79375 h -0.79375 -0.79375 v -0.79375 -0.79375 h -0.79375 -0.79375 v -0.79375 -0.79375 h 0.79375 0.79375 v -0.79375 -0.79375 h 1.5875 1.5875 v -0.79375 -0.79375 h -1.5875 -1.5875 v -0.79375 -0.79375 h 1.5875 1.5875 v -1.5875 -1.5875 h 1.5875 1.5875 v 0.79375 0.79375 h 0.79375 0.79375 v 0.79375 0.79375 h 0.79375 0.79375 v -0.79375 -0.79375 h 0.79375 0.79375 v -1.5875 -1.5875 h 0.79375 0.79375 v 1.5875 1.5875 h 0.79375 0.79375 v -2.38125 -2.38125 h -0.79375 -0.79375 v -0.79375 -0.79375 h -0.79375 -0.79375 v -1.5875 -1.5875 h -0.79375 -0.79375 v -0.79375 -0.79375 h -2.38125 -2.38125 v 0.79375 0.79375 h -0.79375 -0.79375 v -0.79375 -0.79375 h -0.79375 -0.79375 v -0.79375 -0.79375 h 0.79375 0.79375 v -0.79375 -0.79375 h -0.79375 -0.79375 v -0.79375 -0.79375 h -0.79375 -0.79375 v -0.79375 -0.79375 h -0.79375 -0.79375 v -1.5875 -1.5875 h 0.79375 0.79375 v 0.79375 0.79375 h 1.5875 1.5875 v 0.79375 0.79375 h 1.5875 1.5875 v -0.79375 -0.79375 h -1.5875 -1.5875 v -0.79375 -0.79375 h 1.5875 1.5875 v -0.79375 -0.79375 h -1.5875 -1.5875 v 0.79375 0.79375 h -0.79375 -0.79375 v -0.79375 -0.79375 h -0.79375 -0.79375 v -0.79375 -0.79375 h -1.5875 -1.5875 v 1.5875 1.5875 h -2.38125 -2.38125 v 0.79375 0.79375 h -0.79375 -0.79375 v 0.79375 0.79375 h 1.5875 1.5875 v -0.79375 -0.79375 h 0.79375 0.79375 v 0.79375 0.79375 h 1.5875 1.5875 v 1.5875 1.5875 h 1.5875 1.5875 v 0.79375 0.79375 h -0.79375 -0.79375 v 0.79375 0.79375 h -1.5875 -1.5875 v -1.5875 -1.5875 h -0.79375 -0.79375 v -0.79375 -0.79375 h -0.79375 -0.79375 v 1.5875 1.5875 h -0.79375 -0.79375 v 0.79375 0.79375 h 0.79375 0.79375 v 0.79375 0.79375 h -1.5875 -1.5875 v -0.79375 -0.79375 h -1.5875 -1.5875 v -0.79375 -0.79375 h 0.79375 0.79375 v -0.79375 -0.79375 h 1.5875 1.5875 v -0.79375 -0.79375 h -2.38125 -2.38125 v -0.79375 -0.79375 h 0.79375 0.79375 v -0.79375 -0.79375 h -0.79375 -0.79375 v 0.79375 0.79375 h -0.793754 -0.79375 v 0.79375 0.79375 h -0.79375 -0.79375 v -1.5875 -1.5875 h 0.79375 0.79375 v -0.79375 -0.79375 h -0.79375 -0.79375 v -0.79375 -0.79375 h -0.79375 -0.79375 v -0.79375 -0.79375 h -0.79375 -0.79375 v 0.79375 0.79375 h -0.79375 -0.79375 v 1.5875 1.5875 h -0.79375 -0.79375 v 0.79375 0.79375 h -0.79375 -0.79375 v 0.79375 0.79375 h -0.793751 -0.79375 v 0.79375 0.79375 h 0.79375 0.793751 v 0.79375 0.79375 h 0.79375 0.79375 v 0.79375 0.79375 h -0.79375 -0.79375 v 0.79375 0.79375 h -0.793751 -0.79375 v 0.79375 0.79375 h 1.587501 1.5875 v 0.79375 0.79375 h -1.5875 -1.587501 v 0.79375 0.79375 h 1.587501 1.5875 v -0.79375 -0.79375 h 0.79375 0.79375 v -0.79375 -0.79375 h -0.79375 -0.79375 v -0.79375 -0.79375 h 1.5875 1.5875 v 1.5875 1.5875 h 0.79375 0.79375 v 1.5875 1.5875 h -1.5875 -1.5875 v 0.79375 0.79375 h -0.79375 -0.79375 v -0.79375 -0.79375 h -1.5875 -1.587501 v 0.79375 0.79375 h -1.5875 -1.587501 v 0.79375 0.79375 h -0.79375 -0.79375 v 0.79375 0.79375 h 0.79375 0.79375 v -0.79375 -0.79375 h 1.587501 1.5875 v -0.79375 -0.79375 h 1.587501 1.5875 v 0.79375 0.79375 h 0.79375 0.79375 v -0.79375 -0.79375 h 3.175 3.175 v 0.79375 0.79375 h -0.79375 -0.79375 v 1.5875 1.5875 h 2.38125 2.381254 v 0.79375 0.79375 h 0.79375 0.79375 v 0.79375 0.79375 h 0.79375 0.79375 v 0.79375 0.79375 h 0.79375 0.79375 v -0.79375 -0.79375 h 0.79375 0.79375 v 0.79375 0.79375 h 0.79375 0.79375 v 0.79375 0.79375 h 1.5875 1.5875 v 1.5875 1.5875 h 0.79375 0.79375 z m -4.7625,-6.35 v -0.79375 h -0.79375 -0.79375 v -2.38125 -2.38125 h 2.38125 2.38125 v -0.79375 -0.79375 h 0.79375 0.79375 v -0.79375 -0.79375 h -0.79375 -0.79375 v -0.79375 -0.79375 h -1.5875 -1.5875 v -0.79375 -0.79375 h 1.5875 1.5875 v -0.79375 -0.79375 h 0.79375 0.79375 v -0.79375 -0.79375 h -0.79375 -0.79375 v -0.79375 -0.79375 h 0.79375 0.79375 v 0.79375 0.79375 h 0.79375 0.79375 v 0.79375 0.79375 h -0.79375 -0.79375 v 2.38125 2.38125 h 0.79375 0.79375 v 0.79375 0.79375 h -0.79375 -0.79375 v 0.79375 0.79375 h -0.79375 -0.79375 v 0.79375 0.79375 h -1.5875 -1.5875 v 0.79375 0.79375 h 1.5875 1.5875 v 0.79375 0.79375 h -0.79375 -0.79375 v 0.79375 0.79375 h -0.79375 -0.79375 z m -6.35,-1.5875 v -0.79375 h -0.79375 -0.79375 v -0.79375 -0.79375 h -0.79375 -0.79375 v -0.79375 -0.79375 h 0.79375 0.79375 v -0.79375 -0.79375 h 0.79375 0.79375 v -0.79375 -0.79375 h -1.5875 -1.5875 v -0.79375 -0.79375 h -0.793754 -0.79375 v 0.79375 0.79375 h -0.79375 -0.79375 v -1.5875 -1.5875 h 0.79375 0.79375 v -0.79375 -0.79375 h -0.79375 -0.79375 v -0.79375 -0.79375 h -1.5875 -1.5875 v -0.79375 -0.79375 h 0.79375 0.79375 v -1.5875 -1.5875 h 1.5875 1.5875 v 0.79375 0.79375 h -0.79375 -0.79375 v 1.5875 1.5875 h 2.38125 2.381254 v 0.79375 0.79375 h 3.175 3.175 v -0.79375 -0.79375 h 1.5875 1.5875 v 0.79375 0.79375 h -1.5875 -1.5875 v 0.79375 0.79375 h -3.96875 -3.96875 v 0.79375 0.79375 h 3.175 3.175 v 0.79375 0.79375 h 2.38125 2.38125 v 0.79375 0.79375 h -2.38125 -2.38125 v -0.79375 -0.79375 h -0.79375 -0.79375 v 2.38125 2.38125 h 0.79375 0.79375 v 0.79375 0.79375 h -0.79375 -0.79375 v 0.79375 0.79375 h -0.79375 -0.79375 z m 1.5875,-1.5875 v -0.79375 h -0.79375 -0.79375 v -0.79375 -0.79375 h -0.79375 -0.79375 v 0.79375 0.79375 h 0.79375 0.79375 v 0.79375 0.79375 h 0.79375 0.79375 z m 14.2875,-4.7625 v -0.79375 h -0.79375 -0.79375 v -0.79375 -0.79375 h 0.79375 0.79375 v -0.79375 -0.79375 h -0.79375 -0.79375 v -0.79375 -0.79375 h 0.79375 0.79375 v -0.79375 -0.79375 h 0.79375 0.79375 v 0.79375 0.79375 h 0.79375 0.79375 v 0.79375 0.79375 h 0.79375 0.79375 v 1.5875 1.5875 h -1.5875 -1.5875 v 0.79375 0.79375 h -0.79375 -0.79375 z m 1.5875,-1.5875 v -0.79375 h -0.79375 -0.79375 v 0.79375 0.79375 h 0.79375 0.79375 z m -28.575004,-9.525 v -0.79375 h -1.5875 -1.5875 v -0.79375 -0.79375 h 1.5875 1.5875 v -0.79375 -0.79375 h 1.5875 1.5875 v 0.79375 0.79375 h -0.79375 -0.79375 v 1.5875 1.5875 h -0.79375 -0.79375 z m 1.5875,-7.14375 v -1.5875 h 0.79375 0.79375 v 1.5875 1.5875 h -0.79375 -0.79375 z m 31.750004,32.54375 v -0.79375 h -1.5875 -1.5875 v 0.79375 0.79375 h 1.5875 1.5875 z m 3.175,-3.175 v -0.79375 h -2.38125 -2.38125 v 0.79375 0.79375 h 2.38125 2.38125 z m -6.35,-3.175 v -2.38125 h -2.38125 -2.38125 v 2.38125 2.38125 h 2.38125 2.38125 z m -3.175,0 v -0.79375 h 0.79375 0.79375 v 0.79375 0.79375 h -0.79375 -0.79375 z m 6.35,0 v -0.79375 h -0.79375 -0.79375 v 0.79375 0.79375 h 0.79375 0.79375 z m -30.162504,-4.7625 v -0.79375 h -0.79375 -0.79375 v 0.79375 0.79375 h 0.79375 0.79375 z m -11.112502,-4.7625 v -0.79375 h 0.793751 0.79375 v -1.5875 -1.5875 h -0.79375 -0.793751 v 1.5875 1.5875 h -0.79375 -0.79375 v -0.79375 -0.79375 h -0.79375 -0.79375 v 0.79375 0.79375 h 0.79375 0.79375 v 0.79375 0.79375 h 0.79375 0.79375 z m 34.925006,-11.1125 v -0.79375 h -0.79375 -0.79375 v 0.79375 0.79375 h 0.79375 0.79375 z m 7.9375,-4.7625 v -0.79375 h -0.79375 -0.79375 v 0.79375 0.79375 h 0.79375 0.79375 z m -33.337504,-6.35 v -0.79375 h -0.79375 -0.79375 v 0.79375 0.79375 h 0.79375 0.79375 z m 3.175,0 v -0.79375 h -0.79375 -0.79375 v 0.79375 0.79375 h 0.79375 0.79375 z m 15.875004,0 v -0.79375 h -0.79375 -0.79375 v 0.79375 0.79375 h 0.79375 0.79375 z m -4.7625,-4.7625 v -0.79375 h -0.79375 -0.79375 v 0.79375 0.79375 h 0.79375 0.79375 z m -6.35,-1.5875 v -0.79375 h -0.79375 -0.79375 v 0.79375 0.79375 h 0.79375 0.79375 z m -23.812506,32.54375 v -3.175 h 0.79375 0.79375 v 3.175 3.175 h -0.79375 -0.79375 z m 4.7625,-21.43125 v -0.79375 h -2.38125 -2.38125 v -0.79375 -0.79375 h 3.96875 3.968751 v 0.79375 0.79375 h -0.79375 -0.793751 v 0.79375 0.79375 h -0.79375 -0.79375 z m 17.462506,-3.96875 v -1.5875 h 0.79375 0.79375 v 1.5875 1.5875 h -0.79375 -0.79375 z m -22.225006,-5.55625 v -5.55625 h 5.55625 5.556252 v 5.55625 5.55625 h -5.556252 -5.55625 z m 9.525001,0 v -3.96875 h -3.968751 -3.96875 v 3.96875 3.96875 h 3.96875 3.968751 z m -6.350001,0 v -2.38125 h 2.38125 2.381251 v 2.38125 2.38125 h -2.381251 -2.38125 z m 38.100006,0 v -5.55625 h 5.55625 5.55625 v 5.55625 5.55625 h -5.55625 -5.55625 z m 9.525,0 v -3.96875 h -3.96875 -3.96875 v 3.96875 3.96875 h 3.96875 3.96875 z m -6.35,0 v -2.38125 h 2.38125 2.38125 v 2.38125 2.38125 h -2.38125 -2.38125 z m -31.750004,-3.175 v -0.79375 h 0.79375 0.79375 v 0.79375 0.79375 h -0.79375 -0.79375 z m 3.175,-0.79375 v -1.5875 h 0.79375 0.79375 v 1.5875 1.5875 h -0.79375 -0.79375 z m 14.287504,-0.79375 v -0.79375 h 1.5875 1.5875 v 0.79375 0.79375 h -1.5875 -1.5875 z"
       style="fill:#000000;stroke-width:0.264583" />
  </g>
</svg>
